HIERARCHY
ROOT Root
{
	OFFSET 0.00000 0.00000 0.00000
	CHANNELS 6 Xposition Yposition Zposition Zrotation Xrotation Yrotation
	JOINT Hip
	{
		OFFSET 0 0 0	
		CHANNELS 3 Zrotation Xrotation Yrotation
		JOINT Tummy
		{
			OFFSET 0 0.04 0	
			CHANNELS 3 Zrotation Xrotation Yrotation
			JOINT ChestBottom
			{
				OFFSET 0 0.194 0	
				CHANNELS 3 Zrotation Xrotation Yrotation
				JOINT ChestTop
				{
					OFFSET 0 0.166 0	
					CHANNELS 3 Zrotation Xrotation Yrotation
					JOINT LeftCollar
					{
						OFFSET 0 0.1 0	
						CHANNELS 3 Zrotation Xrotation Yrotation
						JOINT LeftUpperArm
						{
							OFFSET 0.156 -0.02 0.03	
							CHANNELS 3 Zrotation Xrotation Yrotation
							JOINT LeftForeArm
							{
								OFFSET 0.035 -0.27 -0.01	
								CHANNELS 3 Zrotation Xrotation Yrotation
								JOINT LeftHand
								{
									OFFSET 0.01 -0.27 0.01	
									CHANNELS 3 Zrotation Xrotation Yrotation
									End Site
									{
										OFFSET 0 -0.15 0
									}
								}
							}
						}
					}
					JOINT RightCollar
					{
						OFFSET 0 0.1 0	
						CHANNELS 3 Zrotation Xrotation Yrotation
						JOINT RightUpperArm
						{
							OFFSET -0.156 -0.02 0.03	
							CHANNELS 3 Zrotation Xrotation Yrotation
							JOINT RightForeArm
							{
								OFFSET -0.035 -0.27 -0.01	
								CHANNELS 3 Zrotation Xrotation Yrotation
								JOINT RightHand
								{
									OFFSET -0.01 -0.27 0.01	
									CHANNELS 3 Zrotation Xrotation Yrotation
									End Site
									{
										OFFSET 0 -0.15 0
									}
								}
							}
						}
					}
					JOINT Neck
					{
						OFFSET 0 0.1 0	
						CHANNELS 3 Zrotation Xrotation Yrotation
						JOINT Head
						{
							OFFSET 0 0.127 0.03	
							CHANNELS 3 Zrotation Xrotation Yrotation
							End Site
							{
								OFFSET 0 0.127 0.03
							}
						}
					}
				}
			}
		}
	}
	JOINT LeftHip
	{
		OFFSET 0 0 0	
		CHANNELS 3 Zrotation Xrotation Yrotation
		JOINT LeftThigh
		{
			OFFSET 0.088 -0.06 0	
			CHANNELS 3 Zrotation Xrotation Yrotation
			JOINT LeftLowerLeg
			{
				OFFSET 0 -0.39 0.02	
				CHANNELS 3 Zrotation Xrotation Yrotation
				JOINT LeftFootTop
				{
					OFFSET 0 -0.43 -0.02	
					CHANNELS 3 Zrotation Xrotation Yrotation
					JOINT LeftFootFront
					{
						OFFSET 0 -0.07 0.085	
						CHANNELS 3 Zrotation Xrotation Yrotation
						End Site
						{
							OFFSET 0 -0.005 0.09
						}
					}
				}
				JOINT LeftHeel
				{
					OFFSET 0 -0.43 -0.02	
					CHANNELS 3 Zrotation Xrotation Yrotation
					End Site
					{
						OFFSET 0 -0.075 -0.05
					}
				}
			}
		}
	}
	JOINT RightHip
	{
		OFFSET 0 0 0	
		CHANNELS 3 Zrotation Xrotation Yrotation
		JOINT RightThigh
		{
			OFFSET -0.088 -0.06 0	
			CHANNELS 3 Zrotation Xrotation Yrotation
			JOINT RightLowerLeg
			{
				OFFSET 0 -0.39 0.02	
				CHANNELS 3 Zrotation Xrotation Yrotation
				JOINT RightFootTop
				{
					OFFSET 0 -0.43 -0.02	
					CHANNELS 3 Zrotation Xrotation Yrotation
					JOINT RightFootFront
					{
						OFFSET 0 -0.07 0.085	
						CHANNELS 3 Zrotation Xrotation Yrotation
						End Site
						{
							OFFSET 0 -0.005 0.09
						}
					}
				}
				JOINT RightHeel
				{
					OFFSET 0 -0.43 -0.02	
					CHANNELS 3 Zrotation Xrotation Yrotation
					End Site
					{
						OFFSET 0 -0.075 -0.05
					}
				}
			}
		}
	}
}
MOTION
Frames: 23
Frame Time: 0.025
0 0.96366 0 -0 0 -0 14.879 17.85 -22.558 0.039721 -9.6521 3.3948 0.03972 -9.6521 3.3948 -0.005522 -8.1082 2.8464 -0 0 -0 1.7004 12.651 8.8188 -5.3259 -5.2374 1.1354 -0 0 -0 -0 0 -0 -11.63 10.583 -6.3823 4.2507 -1.9373 1.5193 -0 0 -0 -6.0083 0.45906 9.7253 -6.0083 0.45906 9.7253 14.879 17.85 -22.558 -5.0579 -18.254 -0.24548 1.3112 -1.9317 3.687 -0 0 -0 -0 0 -0 -0 0 -0 14.879 17.85 -22.558 -7.3848 -21.656 19.822 -3.5332 -2.785 -10.316 -0 0 -0 -0 0 -0 -0 0 -0 
0 0.96366 0 -0 0 -0 14.888 17.863 -22.563 0.035577 -9.6728 3.4098 0.035576 -9.6728 3.4097 -0.0092537 -8.1255 2.859 -0 0 -0 1.7156 12.687 8.7963 -5.309 -5.2126 1.1696 -0 0 -0 -0 0 -0 -11.613 10.629 -6.4183 4.282 -1.956 1.5154 -0 0 -0 -5.9967 0.48052 9.7121 -5.9967 0.48052 9.7121 14.888 17.863 -22.563 -5.0712 -18.258 -0.25067 1.3088 -1.9616 3.7032 -0 0 -0 -0 0 -0 -0 0 -0 14.888 17.863 -22.563 -7.3862 -21.668 19.822 -3.5444 -2.7934 -10.319 -0 0 -0 -0 0 -0 -0 0 -0 
0 0.96366 0 -0 0 -0 14.901 17.878 -22.567 0.029176 -9.702 3.4327 0.029178 -9.702 3.4327 -0.015005 -8.1501 2.8783 -0 0 -0 1.7372 12.739 8.7581 -5.2882 -5.1845 1.2093 -0 0 -0 -0 0 -0 -11.586 10.694 -6.4694 4.315 -1.9786 1.5101 -0 0 -0 -5.9826 0.51708 9.6919 -5.9825 0.51707 9.6919 14.901 17.878 -22.567 -5.0905 -18.261 -0.25888 1.3041 -2.003 3.7257 -0 0 -0 -0 0 -0 -0 0 -0 14.901 17.878 -22.567 -7.3904 -21.683 19.82 -3.5581 -2.8041 -10.324 -0 0 -0 -0 0 -0 -0 0 -0 
0 0.96366 0 -0 0 -0 14.917 17.891 -22.571 0.022377 -9.7351 3.4584 0.022377 -9.7351 3.4584 -0.021143 -8.1779 2.8999 -0 0 -0 1.757 12.797 8.7166 -5.2722 -5.1678 1.2351 -0 0 -0 -0 0 -0 -11.553 10.765 -6.5137 4.3269 -1.9964 1.5035 -0 0 -0 -5.9658 0.56877 9.6723 -5.9658 0.56877 9.6723 14.917 17.891 -22.571 -5.1085 -18.265 -0.26549 1.2939 -2.0447 3.7481 -0 0 -0 -0 0 -0 -0 0 -0 14.917 17.891 -22.571 -7.399 -21.698 19.817 -3.5671 -2.8133 -10.325 -0 0 -0 -0 0 -0 -0 0 -0 
0 0.96366 0 -0 0 -0 14.936 17.905 -22.583 0.019749 -9.7705 3.4859 0.019751 -9.7705 3.4859 -0.023813 -8.2076 2.9229 -0 0 -0 1.7636 12.85 8.6873 -5.2629 -5.1662 1.244 -0 0 -0 -0 0 -0 -11.529 10.833 -6.5322 4.3183 -2.0065 1.4862 -0 0 -0 -5.9503 0.62874 9.6592 -5.9503 0.62874 9.6592 14.936 17.905 -22.583 -5.1157 -18.274 -0.26286 1.2738 -2.0863 3.7697 -0 0 -0 -0 0 -0 -0 0 -0 14.936 17.905 -22.583 -7.4079 -21.716 19.821 -3.5692 -2.8214 -10.311 -0 0 -0 -0 0 -0 -0 0 -0 
0 0.96366 0 -0 0 -0 14.951 17.921 -22.608 0.024322 -9.8039 3.5175 0.024321 -9.8039 3.5175 -0.020487 -8.2356 2.9493 -0 0 -0 1.7576 12.889 8.6715 -5.2623 -5.1805 1.2392 -0 0 -0 -0 0 -0 -11.523 10.89 -6.5209 4.2988 -2.0106 1.4465 -0 0 -0 -5.9459 0.68216 9.6535 -5.9459 0.68216 9.6535 14.951 17.921 -22.608 -5.1057 -18.287 -0.24866 1.2446 -2.1337 3.7905 -0 0 -0 -0 0 -0 -0 0 -0 14.951 17.921 -22.608 -7.4088 -21.738 19.839 -3.5664 -2.8289 -10.281 -0 0 -0 -0 0 -0 -0 0 -0 
0 0.96366 0 -0 0 -0 14.956 17.937 -22.639 0.037154 -9.8291 3.5524 0.037153 -9.8291 3.5524 -0.010242 -8.2569 2.9785 -0 0 -0 1.7461 12.905 8.662 -5.2728 -5.2093 1.2248 -0 0 -0 -0 0 -0 -11.536 10.931 -6.4871 4.2725 -2.0187 1.384 -0 0 -0 -5.9523 0.72071 9.6526 -5.9523 0.72071 9.6526 14.956 17.937 -22.639 -5.0801 -18.296 -0.22659 1.2142 -2.191 3.8068 -0 0 -0 -0 0 -0 -0 0 -0 14.956 17.937 -22.639 -7.3968 -21.758 19.867 -3.5623 -2.8332 -10.247 -0 0 -0 -0 0 -0 -0 0 -0 
0 0.96366 0 -0 0 -0 14.945 17.951 -22.663 0.057484 -9.8425 3.5875 0.057484 -9.8425 3.5875 0.0063398 -8.2683 3.0076 -0 0 -0 1.7347 12.893 8.646 -5.2934 -5.2521 1.2078 -0 0 -0 -0 0 -0 -11.561 10.959 -6.4447 4.2411 -2.0418 1.303 -0 0 -0 -5.9576 0.74657 9.6524 -5.9576 0.74657 9.6524 14.945 17.951 -22.663 -5.0462 -18.298 -0.20333 1.1904 -2.2572 3.8217 -0 0 -0 -0 0 -0 -0 0 -0 14.945 17.951 -22.663 -7.3735 -21.771 19.894 -3.5582 -2.8321 -10.223 -0 0 -0 -0 0 -0 -0 0 -0 
0 0.96366 0 -0 0 -0 14.919 17.962 -22.674 0.083923 -9.8446 3.6187 0.083922 -9.8446 3.6187 0.028137 -8.2701 3.0335 -0 0 -0 1.7257 12.856 8.6129 -5.3185 -5.3084 1.1997 -0 0 -0 -0 0 -0 -11.592 10.973 -6.4042 4.21 -2.0807 1.2075 -0 0 -0 -5.9596 0.76066 9.6522 -5.9596 0.76066 9.6522 14.919 17.962 -22.674 -5.0114 -18.295 -0.18959 1.1791 -2.3251 3.8418 -0 0 -0 -0 0 -0 -0 0 -0 14.919 17.962 -22.674 -7.3411 -21.775 19.913 -3.5563 -2.8298 -10.214 -0 0 -0 -0 0 -0 -0 0 -0 
0 0.96366 0 -0 0 -0 14.887 17.974 -22.668 0.10979 -9.8396 3.6438 0.1098 -9.8396 3.6438 0.049564 -8.266 3.0542 -0 0 -0 1.7264 12.795 8.5551 -5.341 -5.3733 1.2193 -0 0 -0 -0 0 -0 -11.619 10.973 -6.3766 4.1823 -2.13 1.1217 -0 0 -0 -5.9638 0.76055 9.6517 -5.9638 0.76055 9.6517 14.887 17.974 -22.668 -4.982 -18.295 -0.18264 1.1802 -2.3847 3.8516 -0 0 -0 -0 0 -0 -0 0 -0 14.887 17.974 -22.668 -7.3073 -21.774 19.917 -3.5586 -2.8321 -10.213 -0 0 -0 -0 0 -0 -0 0 -0 
0 0.96366 0 -0 0 -0 14.867 17.987 -22.653 0.1218 -9.8323 3.664 0.1218 -9.8323 3.664 0.059429 -8.26 3.071 -0 0 -0 1.75 12.717 8.4731 -5.3578 -5.438 1.2827 -0 0 -0 -0 0 -0 -11.632 10.964 -6.3708 4.1593 -2.1841 1.0796 -0 0 -0 -5.9642 0.74943 9.6458 -5.9642 0.74943 9.6458 14.867 17.987 -22.653 -4.9656 -18.309 -0.16486 1.1852 -2.4285 3.8412 -0 0 -0 -0 0 -0 -0 0 -0 14.867 17.987 -22.653 -7.2899 -21.777 19.906 -3.5627 -2.8393 -10.205 -0 0 -0 -0 0 -0 -0 0 -0 
0 0.96366 0 -0 0 -0 14.86 18.004 -22.636 0.11941 -9.8248 3.6832 0.11941 -9.8248 3.6832 0.05723 -8.2537 3.0871 -0 0 -0 1.7981 12.621 8.3777 -5.3691 -5.49 1.39 -0 0 -0 -0 0 -0 -11.631 10.946 -6.3873 4.1474 -2.2385 1.0807 -0 0 -0 -5.9554 0.73528 9.6297 -5.9554 0.73528 9.6297 14.86 18.004 -22.636 -4.9521 -18.342 -0.13217 1.1874 -2.4524 3.824 -0 0 -0 -0 0 -0 -0 0 -0 14.86 18.004 -22.636 -7.2851 -21.788 19.888 -3.5665 -2.8499 -10.192 -0 0 -0 -0 0 -0 -0 0 -0 
0 0.96366 0 -0 0 -0 14.855 18.027 -22.624 0.11055 -9.8189 3.7039 0.11055 -9.8189 3.7039 0.049593 -8.2487 3.1046 -0 0 -0 1.8633 12.514 8.2838 -5.3727 -5.5192 1.5226 -0 0 -0 -0 0 -0 -11.62 10.927 -6.4123 4.1555 -2.2906 1.094 -0 0 -0 -5.9442 0.72436 9.6062 -5.9442 0.72436 9.6062 14.855 18.027 -22.624 -4.931 -18.393 -0.09064 1.1867 -2.4587 3.8061 -0 0 -0 -0 0 -0 -0 0 -0 14.855 18.027 -22.624 -7.2794 -21.806 19.873 -3.5706 -2.8689 -10.178 -0 0 -0 -0 0 -0 -0 0 -0 
0 0.96366 0 -0 0 -0 14.848 18.053 -22.62 0.10123 -9.8166 3.7276 0.10123 -9.8166 3.7276 0.041508 -8.2467 3.1246 -0 0 -0 1.9345 12.413 8.1994 -5.3642 -5.5281 1.6488 -0 0 -0 -0 0 -0 -11.602 10.917 -6.4357 4.1843 -2.3391 1.1016 -0 0 -0 -5.9372 0.71915 9.581 -5.9372 0.71915 9.581 14.848 18.053 -22.62 -4.9015 -18.453 -0.045694 1.1856 -2.4601 3.7861 -0 0 -0 -0 0 -0 -0 0 -0 14.848 18.053 -22.62 -7.2667 -21.828 19.867 -3.574 -2.8989 -10.16 -0 0 -0 -0 0 -0 -0 0 -0 
0 0.96366 0 -0 0 -0 14.844 18.082 -22.627 0.090538 -9.8194 3.7557 0.090537 -9.8194 3.7557 0.032202 -8.249 3.1483 -0 0 -0 2.0051 12.329 8.1245 -5.3417 -5.5245 1.7415 -0 0 -0 -0 0 -0 -11.577 10.917 -6.4642 4.2244 -2.3816 1.1117 -0 0 -0 -5.9279 0.72092 9.5553 -5.9279 0.72093 9.5553 14.844 18.082 -22.627 -4.8728 -18.513 -0.0054231 1.1864 -2.4721 3.778 -0 0 -0 -0 0 -0 -0 0 -0 14.844 18.082 -22.627 -7.2516 -21.856 19.871 -3.5739 -2.9271 -10.143 -0 0 -0 -0 0 -0 -0 0 -0 
0 0.96366 0 -0 0 -0 14.848 18.111 -22.645 0.076461 -9.8248 3.7865 0.076459 -9.8248 3.7865 0.020014 -8.2535 3.1743 -0 0 -0 2.0702 12.265 8.065 -5.3089 -5.5109 1.7972 -0 0 -0 -0 0 -0 -11.542 10.92 -6.4987 4.259 -2.4182 1.1363 -0 0 -0 -5.9078 0.72873 9.5317 -5.9078 0.72873 9.5317 14.848 18.111 -22.645 -4.8525 -18.566 0.025194 1.189 -2.5011 3.7918 -0 0 -0 -0 0 -0 -0 0 -0 14.848 18.111 -22.645 -7.2419 -21.886 19.882 -3.5724 -2.9524 -10.135 -0 0 -0 -0 0 -0 -0 0 -0 
0 0.96366 0 -0 0 -0 14.856 18.13 -22.665 0.062926 -9.8266 3.8151 0.062927 -9.8266 3.8151 0.0083223 -8.2549 3.1984 -0 0 -0 2.119 12.217 8.0304 -5.2726 -5.4839 1.8318 -0 0 -0 -0 0 -0 -11.506 10.917 -6.522 4.276 -2.4504 1.1714 -0 0 -0 -5.8801 0.73736 9.5154 -5.8801 0.73736 9.5154 14.856 18.13 -22.665 -4.8371 -18.605 0.045322 1.1912 -2.5415 3.8162 -0 0 -0 -0 0 -0 -0 0 -0 14.856 18.13 -22.665 -7.237 -21.908 19.897 -3.572 -2.9766 -10.135 -0 0 -0 -0 0 -0 -0 0 -0 
0 0.96366 0 -0 0 -0 14.854 18.13 -22.679 0.054123 -9.8178 3.8375 0.054123 -9.8178 3.8375 0.00072038 -8.2475 3.2173 -0 0 -0 2.1482 12.178 8.0235 -5.24 -5.4427 1.8582 -0 0 -0 -0 0 -0 -11.48 10.902 -6.5202 4.2779 -2.4757 1.1986 -0 0 -0 -5.8549 0.73691 9.5093 -5.8549 0.73691 9.5093 14.854 18.13 -22.679 -4.8213 -18.623 0.061712 1.1943 -2.5799 3.831 -0 0 -0 -0 0 -0 -0 0 -0 14.854 18.13 -22.679 -7.2306 -21.909 19.912 -3.5752 -2.9979 -10.146 -0 0 -0 -0 0 -0 -0 0 -0 
0 0.96366 0 -0 0 -0 14.838 18.108 -22.684 0.04993 -9.7924 3.8516 0.049929 -9.7924 3.8516 -0.0028426 -8.2262 3.2293 -0 0 -0 2.1617 12.138 8.0372 -5.2153 -5.3929 1.8778 -0 0 -0 -0 0 -0 -11.47 10.863 -6.5 4.2767 -2.4938 1.2036 -0 0 -0 -5.8363 0.7175 9.5102 -5.8363 0.7175 9.5102 14.838 18.108 -22.684 -4.8046 -18.624 0.081578 1.1994 -2.6032 3.831 -0 0 -0 -0 0 -0 -0 0 -0 14.838 18.108 -22.684 -7.2207 -21.884 19.927 -3.5844 -3.0165 -10.182 -0 0 -0 -0 0 -0 -0 0 -0 
0 0.96366 0 -0 0 -0 14.818 18.068 -22.685 0.046756 -9.7526 3.8596 0.046755 -9.7526 3.8596 -0.0054096 -8.1928 3.236 -0 0 -0 2.1645 12.092 8.0558 -5.1973 -5.3433 1.8856 -0 0 -0 -0 0 -0 -11.473 10.802 -6.4801 4.2792 -2.5095 1.1876 -0 0 -0 -5.8213 0.68163 9.5111 -5.8213 0.68163 9.5111 14.818 18.068 -22.685 -4.7934 -18.618 0.10401 1.2071 -2.6068 3.8265 -0 0 -0 -0 0 -0 -0 0 -0 14.818 18.068 -22.685 -7.214 -21.842 19.941 -3.5971 -3.0352 -10.255 -0 0 -0 -0 0 -0 -0 0 -0 
0 0.96366 0 -0 0 -0 14.808 18.02 -22.691 0.041449 -9.71 3.8652 0.041447 -9.71 3.8652 -0.0097265 -8.1569 3.2408 -0 0 -0 2.1617 12.057 8.07 -5.1848 -5.3007 1.8764 -0 0 -0 -0 0 -0 -11.481 10.739 -6.4747 4.284 -2.5277 1.1702 -0 0 -0 -5.8075 0.64395 9.5083 -5.8075 0.64395 9.5083 14.808 18.02 -22.691 -4.7944 -18.614 0.13217 1.2171 -2.5968 3.8182 -0 0 -0 -0 0 -0 -0 0 -0 14.808 18.02 -22.691 -7.2173 -21.797 19.958 -3.6098 -3.0563 -10.344 -0 0 -0 -0 0 -0 -0 0 -0 
0 0.96366 0 -0 0 -0 14.809 17.975 -22.707 0.033218 -9.6745 3.8714 0.033216 -9.6745 3.8714 -0.016534 -8.1271 3.2462 -0 0 -0 2.1604 12.049 8.0852 -5.1799 -5.2647 1.8484 -0 0 -0 -0 0 -0 -11.493 10.684 -6.495 4.2923 -2.5427 1.1793 -0 0 -0 -5.795 0.6166 9.5012 -5.795 0.6166 9.5012 14.809 17.975 -22.707 -4.8019 -18.617 0.1735 1.2263 -2.58 3.8015 -0 0 -0 -0 0 -0 -0 0 -0 14.809 17.975 -22.707 -7.2274 -21.758 19.982 -3.6215 -3.0783 -10.414 -0 0 -0 -0 0 -0 -0 0 -0 
0 0.96366 0 -0 0 -0 14.815 17.94 -22.732 0.02485 -9.6502 3.8785 0.02485 -9.6502 3.8785 -0.023516 -8.1066 3.2522 -0 0 -0 2.1608 12.073 8.1152 -5.1828 -5.2302 1.8068 -0 0 -0 -0 0 -0 -11.511 10.639 -6.5435 4.3024 -2.5466 1.232 -0 0 -0 -5.7841 0.6064 9.4925 -5.7841 0.6064 9.4925 14.815 17.94 -22.732 -4.8065 -18.632 0.22416 1.2333 -2.559 3.7836 -0 0 -0 -0 0 -0 -0 0 -0 14.815 17.94 -22.732 -7.2376 -21.731 20.01 -3.6301 -3.0996 -10.453 -0 0 -0 -0 0 -0 -0 0 -0 
